<?xml version="1.0" encoding="UTF-8"?>
<svg fill="none" viewBox="0 0 200 200" xmlns="http://www.w3.org/2000/svg">
<style>.Ball_874{animation:2s cubic-bezier(.55,.25,.32,1.6) infinite forwards Ball_874;transform-origin:81.645px 81.645px}@keyframes Ball_874{0%,100%{transform:scale(1)}50%{transform:scale(.4)}}.Infinity_838{animation:2s cubic-bezier(.55,.25,.32,1.6) infinite forwards Infinity_838;transform:translateX(68px) translateY(67px)}@keyframes Infinity_838{0%,100%{transform:translateX(68px) translateY(67px)}47.5%{transform:translateX(39.34px) translateY(17.85px)}}.Bang_330{animation:2s cubic-bezier(.55,.25,.32,1.6) infinite forwards Bang_330;transform:translateX(78px) translateY(64px)}@keyframes Bang_330{0%,100%{transform:translateX(78px) translateY(64px)}53.5%{transform:translateX(19.02px) translateY(63.33px)}}.Plus_48{animation:2s cubic-bezier(.55,.25,.32,1.6) infinite forwards Plus_48;transform:translateX(69px) translateY(69px)}@keyframes Plus_48{0%,100%{transform:translateX(69px) translateY(69px)}47.5%{transform:translateX(47.66px) translateY(116.54px)}}.Flask_998{animation:2s cubic-bezier(.55,.25,.32,1.6) infinite forwards Flask_998;transform:translateX(67.99px) translateY(64.99px)}@keyframes Flask_998{0%,100%{transform:translateX(67.99px) translateY(64.99px)}52.5%{transform:translateX(101.52px) translateY(104.32px)}}.Sword_555{animation:2s cubic-bezier(.55,.25,.32,1.6) infinite forwards Sword_555;transform:translateX(72px) translateY(60px)}@keyframes Sword_555{0%,100%{transform:translateX(72px) translateY(60px)}53%{transform:translateX(128.08px) translateY(54.51px)}}.Joystick_630{animation:2s cubic-bezier(.55,.25,.32,1.6) infinite forwards Joystick_630;transform:translateX(64px) translateY(66.01px)}@keyframes Joystick_630{0%,100%{transform:translateX(64px) translateY(66.01px)}53%{transform:translateX(88.92px) translateY(19.78px)}}</style>
<g width="200" height="200" clip-path="url(#a)" data-name="Frame 1">
<rect width="200" height="200" data-name="Frame 1"/>
<g transform="translate(18 18)" width="163.29" height="163.29" data-name="Frame 8">
<g class="Ball_874">
<path d="m74.64 148.8c40.96 0 74.164-33.204 74.164-74.164 0-40.96-33.204-74.164-74.164-74.164-40.96 0-74.164 33.204-74.164 74.164 0 40.96 33.204 74.164 74.164 74.164z" fill="currentColor" data-name="Ball"/>
</g>
<g class="Infinity_838" transform="translate(63.26 58.88)" width="28.86" height="26.04" data-name="Infinity">
<path d="m11.708 12.415c0.2139-2.8899 0.5425-4.9479 0.9872-6.1738 0.5916-1.6752 1.5413-3.0455 2.8504-4.1109 1.5438-1.2563 3.3713-1.9606 5.4817-2.1145 2.1112-0.1535 4.0181 0.81619 5.7208 2.9083 1.1889 1.461 1.8733 2.8126 2.0538 4.0548 0.1801 1.2426-0.0524 2.5484-0.698 3.9175-0.6453 1.3691-1.5272 2.5081-2.6441 3.417-1.3088 1.0654-2.8376 1.7235-4.5877 1.9748-1.3008 0.1739-3.3883 0.0707-6.2616-0.3066-0.2767 3.744-1.5396 6.5316-3.7885 8.362-1.4852 1.2085-3.1458 1.7726-4.9825 1.6927-1.837-0.0794-3.3297-0.8253-4.4778-2.2372-1.1386-1.3986-1.5633-3.0081-1.2734-4.8294 0.28995-1.8208 1.1773-3.3355 2.6624-4.5439 2.2493-1.83 5.2349-2.5002 8.9573-2.0106zm-0.0707 3.0214c-2.184-0.2808-3.7718-0.3107-4.7648-0.0894s-1.8125 0.5953-2.4594 1.1215c-0.8528 0.6939-1.3553 1.5255-1.5084 2.4935-0.15267 0.9689 0.13354 1.8978 0.85904 2.7897 0.7151 0.8786 1.5804 1.3421 2.5971 1.3899 1.0159 0.0474 1.9436-0.2692 2.7814-0.9514 1.4852-1.2081 2.3168-3.4599 2.4952-6.7538zm3.0285-2.4947c2.6391 0.6306 4.7399 0.8245 6.302 0.582 1.0088-0.1415 1.9323-0.5533 2.7701-1.2351 1.1174-0.9094 1.7722-2.0189 1.9656-3.3289 0.1931-1.3087-0.2246-2.595-1.2525-3.858-1.0675-1.3121-2.2697-2.001-3.6059-2.0667-1.3358-0.06448-2.5776 0.36899-3.7241 1.3021-0.7201 0.58615-1.2559 1.31-1.6057 2.1707-0.4601 1.1773-0.7434 3.3213-0.8495 6.4339z" fill="currentColor" data-name="Vector"/>
</g>
<g class="Bang_330" transform="translate(69.92 63.91)" width="13.45" height="36.78" data-name="Bang">
<g width="9.61" height="26.81" data-name="Group">
<path d="m6.3644 26.814-4.9404-18.004-1.424-7.6506 6.2329-1.1598 1.424 7.6506 1.9502 18.56-3.2427 0.6036z" fill="currentColor" data-name="Vector"/>
</g>
<path transform="translate(6.01 29.34)" d="m3.7311 7.7765c2.0528 0 3.717-1.6641 3.717-3.717s-1.6641-3.717-3.717-3.717-3.717 1.6641-3.717 3.717 1.6641 3.717 3.717 3.717z" fill="currentColor" data-name="Vector"/>
</g>
<g class="Plus_48" fill="currentColor" data-name="Plus">
<path d="m26.078 13.208-7.54-2.3305 2.3297-7.54-8.0426-2.4852-2.33 7.5396-7.54-2.33-2.4852 8.043 7.5396 2.3304-2.33 7.54 8.0425 2.4848 2.3305-7.54 7.54 2.3304 2.4855-8.0425z"/>
</g>
<g class="Flask_998" fill="currentColor" data-name="Flask">
<path  d="m20.997 13.424-0.7871-12.885-1.7643 0.020795 0.5433 14.104s1.258 1.8903 2.7656 4.3863h-13.78c1.5109-2.496 2.7718-4.3863 2.7718-4.3863l0.7055-14.061-1.7347-0.011654-0.74339 12.858s-9.1678 13.262-8.1765 16.731c0.99091 3.4686 7.929 3.8455 10.159 3.8455h2.9731 1.9823 3.1462c2.2297 0 9.1462-0.3902 10.137-3.8588 0.9917-3.469-8.1977-16.744-8.1977-16.744zm5.7932 15.992c-0.7072 2.4747-8.1083 2.1153-9.6995 2.1153h-2.1698-2.3122c-1.5912 0-8.9747 0.3594-9.6819-2.1153-0.38022-1.3308 1.9094-5.6098 4.1076-9.1641l15.725 0.1714c2.1719 3.5293 4.4071 7.6752 4.0306 8.9927z"/>
</g>
<g class="Sword_555" transform="translate(79.79 59.24)" width="21.34" height="44.22" fill="currentColor" data-name="Sword">
<path d="m21.336 7.9294-3.6338-7.9294-8.0941 4.1296-5.0868 23.511-3.0156-0.9098-0.90064 5.2749 2.5409 0.7638-3.1458 9.0779 6.844 2.3712 3.2007-9.2356-1.9048-0.6602-2.5072 7.2347-3.0343-1.0513 2.4798-7.156 1.9369 0.5828 0.3378 0.1169-0.33738-0.1169 5.8132 1.748 2.0534-4.915-2.7444-0.8274 9.1982-22.009zm-9.9931-2.5605 5.2033-2.4777 2.6432 5.2857-9.2547 21.097-3.9058-1.1777 5.314-22.727zm0.3714 28.18-9.127-2.7822 0.33155-1.8512 9.578 2.8891-0.7825 1.7443z" data-name="Vector"/>
<path transform="translate(8.45 6.77)" d="m2.4333 19.027 5.4517-17.18-0.57783-1.0733-1.1569 0.6602-5.6988 16.932 0.49546 1.3208 1.4864-0.6602z" data-name="Vector"/>
</g>
<g class="Joystick_630" transform="translate(67.46 59.58)" width="35.88" height="32.95" data-name="Joystick">
<g width="35.88" height="32.95" data-name="Group">
<path d="m16.788 1.9693c0.3103 0 0.6086 0.03412 0.8894 0.1065 2.9478 0.76045 6.9168 2.9944 8.0425 3.7132 1.1257 0.71884 4.8685 3.2011 7.2701 6.3252 2.4024 3.1246-0.5566 11.878-0.9485 13.785-0.3411 1.6603-1.4543 5.0823-3.6912 5.0823-0.3315 0-0.6885-0.0753-1.0704-0.2425-2.632-1.1532-1.0503-8.1166-2.5642-10.415-1.5155-2.298-3.7964-4.3801-4.8222-5.0777-1.0263-0.6976-3.816-1.8462-6.5242-2.3387-0.1527-0.0275-0.3145-0.0404-0.4859-0.0404-2.2776 0-6.0761 2.2943-8.5271 2.2943-0.62941 0-1.1698-0.1511-1.5725-0.5304-2.3529-2.214 0.98425-5.1701 2.5846-6.2779 1.4818-1.0267 7.5071-6.3844 11.42-6.3844zm0-1.9693c-3.9141 0-8.8429 3.858-11.49 5.9309-0.45177 0.35402-0.84114 0.65853-1.0504 0.80372-1.2047 0.83366-4.0281 3.0713-4.2353 5.8419-0.098592 1.3146 0.39312 2.5214 1.4219 3.489 0.75129 0.7072 1.7347 1.0658 2.922 1.0658 1.602 0 3.3804-0.6619 5.1006-1.3021 1.2484-0.4651 2.6637-0.9921 3.4266-0.9921 0.077 0 0.119 0.0066 0.1331 0.0091 2.6524 0.4817 5.1039 1.5775 5.7691 2.0293 0.8195 0.5574 2.9174 2.4589 4.2852 4.5331 0.3453 0.5242 0.4327 2.4111 0.4909 3.6596 0.1377 2.9627 0.2941 6.3207 2.9278 7.4746 0.6182 0.2709 1.2447 0.4077 1.8608 0.4077 0.9976 0 4.3518-0.4796 5.6206-6.6551 0.0511-0.2484 0.1784-0.7264 0.327-1.2792 1.4872-5.5615 2.5475-11.119 0.2537-14.102-2.4835-3.2303-6.2629-5.8207-7.773-6.785-0.9642-0.6161-5.2549-3.0946-8.6095-3.9607-0.4335-0.11107-0.8981-0.16848-1.3807-0.16848z" fill="currentColor" data-name="Vector"/>
</g>
<path transform="translate(14.48 5.77)" d="m2.7747 5.3638c1.2689 0 2.2976-1.0287 2.2976-2.2976s-1.0287-2.2976-2.2976-2.2976-2.2976 1.0287-2.2976 2.2976 1.0286 2.2976 2.2976 2.2976z" fill="currentColor" data-name="Vector"/>
<path transform="translate(23.83 12.17)" d="m3.1297 4.7648c1.2692 0 2.298-1.0288 2.298-2.298s-1.0288-2.298-2.298-2.298c-1.2691 0-2.298 1.0288-2.298 2.298s1.0288 2.298 2.298 2.298z" fill="currentColor" data-name="Vector"/>
</g>
</g>
</g>
<defs>
<clipPath id="a">
<rect width="200" height="200"/>
</clipPath>
</defs>
</svg>
