<?xml version="1.0" encoding="UTF-8"?>
<svg fill="none" viewBox="0 0 169 115" xmlns="http://www.w3.org/2000/svg">
<style>.Frame_1,.Union{transform-box:fill-box;transform-origin:50% 50%}.Union{animation:3s cubic-bezier(.45,0,.55,1) infinite forwards Union}@keyframes Union{0%,100%,67%{transform:translateX(0) translateY(0)}33.3%,43.3%{transform:translateX(-96px) translateY(-27px)}}.Frame_7{animation:3s cubic-bezier(.45,0,.55,1) infinite forwards Frame_7;transform-box:fill-box;transform-origin:50% 50%}@keyframes Frame_7{0%,100%,26.7%,58.3%,66.7%{transform:translateX(-28px)}36.7%,55%{transform:translateX(28px)}}</style>
<rect width="169" height="115" fill="#1E1E1E"/>
<rect transform="translate(-83 -161)" width="675" height="630" fill="#fff"/>
<g clip-path="url(#b)">
<rect width="169" height="115" rx="15" fill="#DFDFDF"/>
<mask id="a" fill="white">
<path d="m-28 15c0-8.2843 6.7157-15 15-15h41v115h-41c-8.2843 0-15-6.716-15-15v-85z"/>
</mask>
<g class="Frame_7">
<path d="m-28 15c0-8.2843 6.7157-15 15-15h41v115h-41c-8.2843 0-15-6.716-15-15v-85z" fill="#A6A6A6"/>
<path d="M-28 0H28H-28ZM28 115H-28H28ZM-28 115V0V115ZM30 0V115H26V0H30Z" fill="#7A7A7A" mask="url(#a)"/>
</g>
<g class="Union">
<path d="m112.39 96.61 2.049 0.5491 9.258-12.966 15.857-1.5342 0.549-2.0491-32.106-23.61 4.393 39.61z" fill="#000" stroke="#fff" stroke-width="4"/>
</g>
</g>
<rect x="1" y="1" width="167" height="113" rx="14" stroke="#7A7A7A" stroke-width="2"/>
<defs>
<clipPath id="b">
<rect width="169" height="115" rx="15" fill="#fff"/>
</clipPath>
</defs>
</svg>
